<svg width="25" height="48" viewBox="0 0 25 48" fill="none" xmlns="http://www.w3.org/2000/svg">
<g clip-path="url(#clip0_396_234)">
<path d="M6.50124 41.9961C9.81258 41.9961 12.5 39.3087 12.5 35.9973V29.9985H6.50124C3.1899 29.9985 0.502441 32.686 0.502441 35.9973C0.502441 39.3087 3.1899 41.9961 6.50124 41.9961Z" fill="#0ACF83"/>
<path d="M0.502441 23.9998C0.502441 20.6884 3.1899 18.001 6.50124 18.001H12.5V29.9986H6.50124C3.1899 29.9986 0.502441 27.3111 0.502441 23.9998Z" fill="#A259FF"/>
<path d="M0.502441 12.0022C0.502441 8.69088 3.1899 6.00342 6.50124 6.00342H12.5V18.001H6.50124C3.1899 18.001 0.502441 15.3136 0.502441 12.0022Z" fill="#F24E1E"/>
<path d="M12.5 6.00342H18.4988C21.8101 6.00342 24.4976 8.69088 24.4976 12.0022C24.4976 15.3136 21.8101 18.001 18.4988 18.001H12.5V6.00342Z" fill="#FF7262"/>
<path d="M24.4976 23.9998C24.4976 27.3111 21.8101 29.9986 18.4988 29.9986C15.1875 29.9986 12.5 27.3111 12.5 23.9998C12.5 20.6884 15.1875 18.001 18.4988 18.001C21.8101 18.001 24.4976 20.6884 24.4976 23.9998Z" fill="#1ABCFE"/>
</g>
<defs>
<clipPath id="clip0_396_234">
<rect width="24" height="35.9928" fill="white" transform="translate(0.5 6.00342)"/>
</clipPath>
</defs>
</svg>
