<svg width="41" height="26" viewBox="0 0 41 26" fill="none" xmlns="http://www.w3.org/2000/svg">
<g clip-path="url(#clip0_401_424)">
<path d="M9.65677 25.941L2.16869 23.8623L0.5 5.146H18.836L17.1655 23.8593L9.65677 25.941Z" fill="#264DE4"/>
<path d="M15.7354 22.6677L17.1629 6.67627H9.66797V24.3498L15.7354 22.6677Z" fill="#2965F1"/>
<path d="M4.32544 13.6182L4.53118 15.9136H9.668V13.6182H4.32544Z" fill="#EBEBEB"/>
<path d="M3.91211 8.97168L4.12078 11.2672H9.66807V8.97168H9.66013H3.91211Z" fill="#EBEBEB"/>
<path d="M9.66805 19.5794L9.65799 19.5821L7.10151 18.8918L6.93808 17.061H5.69583H4.63379L4.95538 20.6653L9.65749 21.9706L9.66805 21.9677V19.5794Z" fill="#EBEBEB"/>
<path d="M4.81519 0.0595703H7.5954V1.22221H5.97782V2.38484H7.5954V3.54748H4.81519V0.0595703Z" fill="black"/>
<path d="M8.15161 0.0595703H10.9318V1.07056H9.31425V1.27276H10.9318V3.59803H8.15161V2.53649H9.76919V2.33429H8.15161V0.0595703Z" fill="black"/>
<path d="M11.4878 0.0595703H14.268V1.07056H12.6504V1.27276H14.268V3.59803H11.4878V2.53649H13.1054V2.33429H11.4878V0.0595703Z" fill="black"/>
<path d="M14.9959 13.6178L15.4103 8.97168H9.66016V11.2672H12.8947L12.6858 13.6178H9.66016V15.9132H12.4868L12.2203 18.8903L9.66016 19.5813V21.9694L14.366 20.6652L14.4005 20.2774L14.9399 14.2342L14.9959 13.6178Z" fill="white"/>
<path d="M40.5 5.146L38.8296 23.8593L31.3208 25.941L23.8327 23.8623L22.1641 5.146H40.5Z" fill="#E44D26"/>
<path d="M31.332 24.3498L37.3995 22.6677L38.827 6.67627H31.332V24.3498Z" fill="#F16529"/>
<path d="M28.0848 11.2672H31.3321V8.97168H31.3242H25.5762L25.6311 9.58752L26.1953 15.9132H31.3321V13.6178H28.2946L28.0848 11.2672Z" fill="#EBEBEB"/>
<path d="M28.6021 17.061H27.3599H26.2979L26.6194 20.6653L31.3216 21.9706L31.3321 21.9677V19.5794L31.3221 19.5821L28.7656 18.8918L28.6021 17.061Z" fill="#EBEBEB"/>
<path d="M23.8701 0.0595703H25.0366V1.2121H26.1037V0.0595703H27.2703V3.5497H26.1038V2.381H25.0367V3.5497H23.8702L23.8701 0.0595703Z" fill="black"/>
<path d="M28.8043 1.21695H27.7773V0.0595703H30.9984V1.21695H29.9709V3.5497H28.8044L28.8043 1.21695Z" fill="black"/>
<path d="M31.5095 0.0595703H32.7259L33.4741 1.2859L34.2216 0.0595703H35.4384V3.5497H34.2767V1.8198L33.4741 3.06074H33.4541L32.6509 1.8198V3.5497H31.5095V0.0595703Z" fill="black"/>
<path d="M36.019 0.0595703H37.1859V2.39606H38.8264V3.5497H36.019V0.0595703Z" fill="black"/>
<path d="M31.324 15.9131H34.1506L33.8841 18.8902L31.324 19.5812V21.9693L36.0298 20.6651L36.0643 20.2773L36.6038 14.2341L36.6598 13.6177H36.0412H31.324V15.9131Z" fill="white"/>
<path d="M31.324 11.2616V11.2672H36.8613H36.8686L36.9147 10.7512L37.0193 9.58752L37.0742 8.97168H31.324V10.3974V11.2616Z" fill="white"/>
</g>
<defs>
<clipPath id="clip0_401_424">
<rect width="40" height="25.8813" fill="white" transform="translate(0.5 0.0595703)"/>
</clipPath>
</defs>
</svg>
