<svg width="41" height="48" viewBox="0 0 41 48" fill="none" xmlns="http://www.w3.org/2000/svg">
<g clip-path="url(#clip0_401_364)">
<path d="M12.2729 22.3991C12.0895 22.1597 11.8187 22.0026 11.5198 21.9624C11.2209 21.9221 10.9183 22.0019 10.6781 22.1842C10.5368 22.2957 10.4228 22.4379 10.3448 22.6002L0.55285 42.1895C0.414162 42.4672 0.391382 42.7885 0.489517 43.0829C0.587652 43.3773 0.798669 43.6207 1.07619 43.7596C1.2384 43.8416 1.41774 43.8841 1.59953 43.8835H15.2421C15.4606 43.8891 15.676 43.8308 15.8619 43.7159C16.0479 43.6009 16.1962 43.4342 16.2888 43.2362C19.2333 37.1545 17.4484 27.9079 12.2729 22.3991Z" fill="url(#paint0_linear_401_364)"/>
<path d="M19.47 4.57266C17.029 8.32899 15.6064 12.6554 15.3418 17.1273C15.0771 21.5993 15.9796 26.0633 17.9606 30.0813L24.5381 43.2364C24.6353 43.4308 24.7847 43.5943 24.9696 43.7086C25.1544 43.823 25.3675 43.8836 25.5848 43.8836H39.2247C39.3785 43.884 39.5309 43.854 39.6731 43.7953C39.8153 43.7366 39.9445 43.6504 40.0532 43.5416C40.162 43.4328 40.2482 43.3036 40.3069 43.1614C40.3656 43.0192 40.3957 42.8669 40.3953 42.713C40.3954 42.5316 40.354 42.3526 40.2741 42.1897L21.4615 4.56715C21.3722 4.37863 21.2312 4.21933 21.0549 4.10778C20.8787 3.99623 20.6743 3.93701 20.4657 3.93701C20.2571 3.93701 20.0528 3.99623 19.8766 4.10778C19.7003 4.21933 19.5593 4.37863 19.47 4.56715V4.57266Z" fill="#2684FF"/>
</g>
<defs>
<linearGradient id="paint0_linear_401_364" x1="17.6633" y1="25.3931" x2="7.3232" y2="43.3023" gradientUnits="userSpaceOnUse">
<stop stop-color="#0052CC"/>
<stop offset="0.92" stop-color="#2684FF"/>
</linearGradient>
<clipPath id="clip0_401_364">
<rect width="40" height="47.5127" fill="white" transform="translate(0.5 0.243652)"/>
</clipPath>
</defs>
</svg>
