<svg width="41" height="48" viewBox="0 0 41 48" fill="none" xmlns="http://www.w3.org/2000/svg">
<mask id="mask0_396_222" style="mask-type:luminance" maskUnits="userSpaceOnUse" x="1" y="4" width="38" height="40">
<path d="M38.3487 4H1.98511V44H38.3487V4Z" fill="white"/>
</mask>
<g mask="url(#mask0_396_222)">
<path d="M16.6071 4.93262L16.4029 5.05617C16.0779 5.25271 15.7719 5.47247 15.4862 5.71259L16.0754 5.29816H21.076L21.9851 12.1818L17.4396 16.7273L12.8942 19.8868V23.5299C12.8942 26.0745 14.2241 28.434 16.4009 29.7516L21.1861 32.6481L11.076 38.5456H9.12611L5.49181 36.3459C3.31498 35.0281 1.98511 32.6686 1.98511 30.1241V17.8733C1.98511 15.3279 3.31582 12.9677 5.49376 11.6504L16.4029 5.0517C16.4705 5.01081 16.5386 4.97112 16.6071 4.93262Z" fill="url(#paint0_radial_396_222)"/>
<path d="M16.6071 4.93262L16.4029 5.05617C16.0779 5.25271 15.7719 5.47247 15.4862 5.71259L16.0754 5.29816H21.076L21.9851 12.1818L17.4396 16.7273L12.8942 19.8868V23.5299C12.8942 26.0745 14.2241 28.434 16.4009 29.7516L21.1861 32.6481L11.076 38.5456H9.12611L5.49181 36.3459C3.31498 35.0281 1.98511 32.6686 1.98511 30.1241V17.8733C1.98511 15.3279 3.31582 12.9677 5.49376 11.6504L16.4029 5.0517C16.4705 5.01081 16.5386 4.97112 16.6071 4.93262Z" fill="url(#paint1_linear_396_222)"/>
<path d="M27.4397 19.4546V23.5276C27.4397 26.0722 26.1097 28.4317 23.9329 29.7493L13.0238 36.3526C10.7922 37.7035 8.01554 37.7522 5.74463 36.4988L16.4008 42.9492C18.7159 44.3506 21.6177 44.3506 23.9329 42.9492L34.8421 36.3458C37.0188 35.0282 38.3487 32.6686 38.3487 30.1241V27.1818L37.4396 25.8182L27.4397 19.4546Z" fill="url(#paint2_radial_396_222)"/>
<path d="M27.4397 19.4546V23.5276C27.4397 26.0722 26.1097 28.4317 23.9329 29.7493L13.0238 36.3526C10.7922 37.7035 8.01554 37.7522 5.74463 36.4988L16.4008 42.9492C18.7159 44.3506 21.6177 44.3506 23.9329 42.9492L34.8421 36.3458C37.0188 35.0282 38.3487 32.6686 38.3487 30.1241V27.1818L37.4396 25.8182L27.4397 19.4546Z" fill="url(#paint3_linear_396_222)"/>
<path d="M34.8402 11.6504L23.931 5.0518C21.6887 3.69537 18.8962 3.65335 16.6197 4.92573L16.4029 5.05682C14.225 6.37421 12.8943 8.73433 12.8943 11.2797V19.9015L16.4029 17.7791C18.717 16.3794 21.6169 16.3794 23.931 17.7791L34.8402 24.3777C36.95 25.654 38.2648 27.9087 38.3449 30.3625C38.3475 30.2831 38.3488 30.2039 38.3488 30.1241V17.8734C38.3488 15.328 37.018 12.9678 34.8402 11.6504Z" fill="url(#paint4_radial_396_222)"/>
<path d="M34.8402 11.6504L23.931 5.0518C21.6887 3.69537 18.8962 3.65335 16.6197 4.92573L16.4029 5.05682C14.225 6.37421 12.8943 8.73433 12.8943 11.2797V19.9015L16.4029 17.7791C18.717 16.3794 21.6169 16.3794 23.931 17.7791L34.8402 24.3777C36.95 25.654 38.2648 27.9087 38.3449 30.3625C38.3475 30.2831 38.3488 30.2039 38.3488 30.1241V17.8734C38.3488 15.328 37.018 12.9678 34.8402 11.6504Z" fill="url(#paint5_linear_396_222)"/>
</g>
<defs>
<radialGradient id="paint0_radial_396_222" cx="0" cy="0" r="1" gradientUnits="userSpaceOnUse" gradientTransform="translate(14.1839 11.853) rotate(110.528) scale(30.3325 52.906)">
<stop offset="0.06441" stop-color="#AE7FE2"/>
<stop offset="1" stop-color="#0078D4"/>
</radialGradient>
<linearGradient id="paint1_linear_396_222" x1="14.2686" y1="36.6077" x2="9.94083" y2="29.1225" gradientUnits="userSpaceOnUse">
<stop stop-color="#114A8B"/>
<stop offset="1" stop-color="#0078D4" stop-opacity="0"/>
</linearGradient>
<radialGradient id="paint2_radial_396_222" cx="0" cy="0" r="1" gradientUnits="userSpaceOnUse" gradientTransform="translate(7.83044 35.2283) rotate(-8.36717) scale(28.2275 18.6461)">
<stop offset="0.133928" stop-color="#D59DFF"/>
<stop offset="1" stop-color="#5E438F"/>
</radialGradient>
<linearGradient id="paint3_linear_396_222" x1="35.0366" y1="25.2517" x2="30.3989" y2="31.9016" gradientUnits="userSpaceOnUse">
<stop stop-color="#493474"/>
<stop offset="1" stop-color="#8C66BA" stop-opacity="0"/>
</linearGradient>
<radialGradient id="paint4_radial_396_222" cx="0" cy="0" r="1" gradientUnits="userSpaceOnUse" gradientTransform="translate(35.6717 26.2765) rotate(-165.772) scale(22.6571 38.1411)">
<stop offset="0.0584996" stop-color="#50E6FF"/>
<stop offset="1" stop-color="#436DCD"/>
</radialGradient>
<linearGradient id="paint5_linear_396_222" x1="13.7814" y1="4.96068" x2="20.6095" y2="4.96068" gradientUnits="userSpaceOnUse">
<stop stop-color="#2D3F80"/>
<stop offset="1" stop-color="#436DCD" stop-opacity="0"/>
</linearGradient>
</defs>
</svg>
